<?xml version="1.0" standalone="no"?>
<!DOCTYPE svg PUBLIC "-//W3C//DTD SVG 20010904//EN"
 "http://www.w3.org/TR/2001/REC-SVG-20010904/DTD/svg10.dtd">
<svg version="1.0" xmlns="http://www.w3.org/2000/svg"
 width="1024.000000pt" height="1024.000000pt" viewBox="0 0 1024.000000 1024.000000"
 preserveAspectRatio="xMidYMid meet">

<g transform="translate(0.000000,1024.000000) scale(0.100000,-0.100000)"
fill="#cc0000" stroke="none">
<path d="M4815 9274 c-514 -25 -1019 -160 -1503 -403 -297 -148 -539 -313
-787 -535 -55 -50 -111 -99 -124 -111 -41 -35 -214 -228 -292 -326 -364 -455
-581 -976 -669 -1604 -81 -584 -32 -1210 137 -1755 57 -185 91 -270 201 -510
132 -287 184 -469 213 -739 15 -146 6 -371 -21 -516 -52 -281 -53 -287 -40
-343 16 -70 43 -101 108 -117 154 -40 204 80 149 355 -34 166 -51 337 -43 435
22 260 60 309 179 231 63 -41 100 -80 162 -171 97 -143 145 -279 170 -485 9
-69 21 -147 27 -175 14 -67 64 -159 104 -195 63 -55 160 -63 243 -20 48 24 70
54 122 167 52 113 70 133 123 133 89 0 187 -82 246 -205 50 -104 70 -199 77
-370 4 -124 2 -158 -22 -290 -42 -230 -27 -331 54 -379 44 -25 126 -26 167 -2
79 47 90 143 49 401 -30 181 -35 330 -16 403 16 58 63 109 114 123 71 19 196
6 269 -28 106 -50 161 -120 197 -253 36 -130 43 -252 30 -482 -18 -296 -4
-374 84 -466 98 -101 268 -108 375 -17 55 47 109 157 127 260 9 44 19 201 25
348 10 295 20 367 56 439 27 53 48 68 94 68 64 0 116 -46 185 -161 78 -131
144 -175 254 -167 107 8 165 67 227 233 64 170 141 281 234 340 57 36 150 71
289 110 148 41 180 43 208 12 45 -48 48 -65 48 -234 0 -157 1 -162 24 -187 50
-53 135 -51 184 5 25 27 28 37 23 73 -17 123 -18 246 -2 318 52 235 221 398
344 334 95 -49 150 -203 159 -447 7 -167 -4 -270 -49 -494 -38 -186 -44 -359
-15 -413 25 -45 72 -72 127 -72 64 0 102 27 136 96 26 54 28 64 26 183 -1 71
-10 184 -23 261 -26 169 -37 591 -20 763 37 358 110 575 280 829 79 118 179
228 208 228 81 0 95 -234 34 -560 -32 -169 -38 -260 -21 -304 15 -39 67 -68
113 -62 110 13 133 119 87 401 -32 193 -32 499 0 725 25 180 79 449 114 571
159 549 193 959 99 1188 -41 99 -127 135 -214 91 -51 -27 -85 -74 -175 -250
-196 -382 -461 -638 -874 -844 -382 -190 -801 -256 -1215 -191 -133 20 -132
20 -97 50 78 66 120 179 97 268 -19 77 -55 112 -167 166 -100 48 -100 48 -69
59 63 22 178 98 242 159 147 141 175 292 76 400 -50 55 -89 77 -265 157 -172
78 -238 121 -292 191 -48 62 -62 123 -39 176 7 18 43 68 81 113 91 107 111
161 106 281 -5 109 -27 163 -94 235 -26 28 -84 73 -129 100 -154 93 -202 171
-193 313 20 322 377 655 799 746 443 95 832 6 1230 -281 77 -55 130 -69 177
-44 50 26 66 59 65 135 -3 160 -148 413 -367 639 -520 537 -1312 875 -2101
895 -93 2 -201 3 -240 1z m565 -108 c359 -58 615 -133 898 -267 504 -237 929
-610 1107 -972 58 -117 74 -181 56 -216 -22 -39 -62 -25 -230 82 -190 120
-377 199 -581 243 -69 16 -127 19 -310 19 -213 0 -231 -2 -339 -29 -300 -75
-524 -216 -684 -431 -67 -90 -104 -159 -138 -260 -34 -98 -34 -254 0 -337 31
-79 102 -153 202 -213 163 -96 214 -163 207 -274 -5 -83 -22 -119 -103 -210
-81 -92 -99 -138 -93 -229 6 -87 42 -155 116 -223 68 -62 152 -109 312 -173
167 -68 217 -109 227 -186 8 -60 -4 -105 -45 -158 -72 -97 -179 -168 -380
-252 -56 -24 -99 -47 -95 -51 5 -4 53 -19 109 -32 136 -33 196 -61 243 -112
90 -98 48 -216 -122 -342 -35 -26 -45 -38 -35 -44 29 -16 264 -69 375 -85 212
-29 516 -5 760 61 340 91 700 290 941 519 139 133 256 295 358 498 78 156 120
217 162 235 44 18 67 10 98 -37 88 -132 67 -533 -47 -934 -210 -731 -667
-1371 -1284 -1797 -252 -174 -455 -278 -753 -385 -304 -110 -394 -191 -497
-444 -45 -113 -74 -161 -113 -188 -40 -29 -73 -35 -120 -22 -55 14 -94 49
-153 136 -85 126 -148 174 -233 176 -69 1 -123 -34 -162 -107 -49 -90 -64
-179 -74 -440 -13 -321 -43 -453 -124 -543 -47 -51 -83 -66 -151 -60 -65 5
-97 30 -129 98 -20 43 -21 58 -18 309 4 357 -12 488 -77 626 -70 149 -172 215
-416 266 -251 52 -376 98 -575 213 -193 110 -248 119 -314 46 -19 -22 -47 -63
-62 -92 -53 -107 -99 -148 -167 -148 -93 0 -150 92 -173 280 -19 164 -44 253
-104 375 -76 158 -116 205 -365 430 -333 300 -610 880 -729 1525 -47 253 -60
413 -60 715 0 474 52 817 184 1206 172 506 425 890 855 1299 333 317 766 580
1233 749 279 102 535 160 882 201 124 14 609 5 730 -14z"/>
<path d="M4795 8974 c-458 -32 -769 -105 -1165 -274 -185 -79 -296 -136 -438
-222 -484 -296 -867 -687 -1121 -1143 -155 -279 -268 -632 -328 -1025 -31
-205 -43 -618 -24 -843 28 -328 106 -654 225 -945 145 -356 315 -620 611 -952
267 -299 341 -449 376 -762 17 -152 24 -140 50 90 13 116 41 162 96 162 10 0
72 -30 138 -66 403 -221 564 -286 960 -388 99 -26 203 -58 231 -71 73 -36 144
-111 172 -182 49 -125 54 -176 61 -573 5 -337 8 -379 24 -403 12 -19 26 -27
47 -27 48 0 61 32 71 173 14 211 49 457 86 602 64 258 183 390 361 402 97 7
145 -9 202 -67 50 -52 93 -148 121 -273 7 -32 16 -60 20 -63 4 -2 22 42 39 98
59 192 134 320 231 391 20 15 123 63 228 107 471 197 816 408 1151 706 411
366 716 805 863 1245 45 133 115 461 105 491 -2 6 -19 -15 -37 -48 -145 -257
-383 -479 -716 -667 -185 -104 -482 -213 -704 -257 -234 -47 -552 -62 -828
-39 -125 10 -391 44 -425 55 -10 3 -18 0 -18 -6 0 -24 102 -330 110 -330 4 0
45 21 90 46 97 55 176 84 246 91 64 7 79 -11 59 -69 -107 -314 -753 -583
-1330 -554 -285 14 -563 79 -785 184 -215 102 -364 207 -554 392 -315 307
-540 721 -631 1166 -31 148 -43 350 -27 459 5 39 9 71 7 73 -1 1 -21 -17 -44
-40 -101 -105 -156 -279 -149 -481 2 -64 1 -114 -3 -110 -25 29 -69 248 -69
347 1 206 110 401 269 478 59 30 75 33 156 33 82 0 97 -3 155 -32 36 -18 91
-54 123 -80 65 -55 139 -141 132 -153 -10 -16 -197 -4 -262 17 -74 24 -74 25
2 -92 213 -331 613 -594 1145 -755 396 -119 812 -156 1170 -104 92 13 220 41
228 49 1 1 -28 33 -66 71 -47 48 -77 89 -97 134 l-29 65 -106 1 c-241 3 -345
84 -345 269 0 124 22 196 40 133 13 -46 78 -128 124 -158 109 -69 241 -63 422
19 112 51 217 115 226 138 8 19 -50 77 -117 118 -30 18 -103 54 -162 79 -199
84 -258 124 -319 213 -26 37 -28 44 -13 39 11 -3 53 -12 94 -21 41 -9 88 -18
103 -22 28 -6 28 -5 -26 78 -103 158 -118 267 -68 493 16 72 31 155 33 183 l5
53 -51 29 c-129 73 -233 243 -267 440 -15 84 -6 225 21 321 42 150 175 375
298 502 20 21 34 40 31 42 -14 14 -256 -73 -392 -141 -65 -32 -53 -12 50 88
187 181 392 299 655 374 175 51 274 66 483 72 343 10 596 -38 820 -155 41 -22
75 -37 75 -33 0 16 -184 185 -275 253 -144 107 -177 129 -316 205 -314 173
-583 265 -924 317 -179 27 -493 48 -610 40z m-1097 -1677 c168 -59 316 -183
519 -437 140 -175 249 -290 367 -390 130 -108 319 -230 358 -230 7 0 -6 19
-28 43 -80 83 -207 241 -264 328 -62 95 -185 328 -177 336 3 2 24 -22 48 -54
192 -263 461 -573 497 -573 4 0 22 28 39 63 l32 62 0 -60 c1 -199 -70 -295
-231 -312 l-58 -6 0 -87 c0 -115 -27 -219 -91 -350 -46 -93 -63 -116 -148
-201 -82 -81 -111 -103 -191 -143 -122 -60 -214 -80 -355 -79 -175 1 -362 64
-482 163 -56 46 -73 76 -24 41 63 -45 228 -96 286 -89 22 3 11 15 -96 103
-214 176 -334 356 -396 593 -33 126 -37 309 -9 417 68 261 256 474 465 525
l65 16 -46 27 c-25 14 -81 39 -124 54 -70 25 -93 28 -204 28 -99 0 -142 -5
-207 -22 -99 -28 -254 -94 -299 -128 -19 -14 -34 -22 -34 -17 0 21 89 142 150
203 84 85 171 141 268 173 103 33 114 35 212 32 59 -2 107 -11 158 -29z"/>
<path d="M3858 6770 c-144 -25 -285 -179 -333 -365 -35 -134 -13 -358 48 -497
111 -250 350 -432 567 -431 65 0 85 4 153 36 149 69 247 201 270 362 22 163
-28 294 -171 446 -127 135 -186 210 -237 298 -50 86 -93 123 -171 147 -51 15
-57 15 -126 4z m422 -523 c45 -33 75 -67 98 -112 23 -44 26 -62 26 -145 0 -87
-2 -100 -31 -155 -41 -79 -95 -129 -160 -150 -68 -22 -109 -14 -162 31 -119
103 -137 325 -36 457 43 57 82 85 131 95 41 9 108 -1 134 -21z"/>
<path d="M2860 5311 c0 -22 46 -168 86 -272 44 -117 119 -268 178 -358 51 -78
66 -92 66 -61 0 22 29 151 59 261 l18 66 -93 68 c-87 63 -244 214 -292 280
-12 17 -22 24 -22 16z"/>
<path d="M3392 4797 c-6 -39 -16 -115 -22 -167 -6 -52 -12 -116 -15 -142 l-5
-46 72 -46 c78 -48 286 -150 329 -161 25 -6 27 -4 33 42 6 41 63 284 82 351 5
16 2 22 -9 22 -32 0 -296 125 -418 198 l-35 22 -12 -73z"/>
<path d="M3996 4572 c-2 -4 -18 -79 -35 -167 -17 -88 -35 -175 -40 -192 l-10
-33 52 -15 c126 -36 429 -85 527 -85 l35 0 -1 187 -2 187 -118 22 c-113 20
-322 72 -378 93 -14 6 -27 7 -30 3z"/>
<path d="M5219 4465 c-8 -8 -351 -35 -444 -35 l-91 0 13 -112 c6 -62 12 -139
13 -170 l0 -58 38 0 c98 0 452 44 522 65 14 4 13 23 -7 157 -12 84 -22 154
-23 156 0 4 -16 2 -21 -3z"/>
<path d="M3388 4243 c17 -31 154 -184 225 -250 65 -60 155 -128 162 -121 1 1
4 52 6 111 l4 108 -85 28 c-84 28 -209 82 -283 122 -37 20 -38 20 -29 2z"/>
<path d="M3881 3935 c-13 -66 -20 -120 -15 -124 16 -15 208 -89 309 -119 120
-37 400 -91 411 -80 2 3 -21 216 -32 286 -5 31 -7 32 -52 32 -118 1 -467 69
-582 114 -13 6 -20 -14 -39 -109z"/>
<path d="M5318 4025 c-18 -19 -292 -62 -566 -91 l-54 -6 9 -81 c4 -45 8 -117
8 -161 l0 -78 105 7 c127 8 291 35 420 69 126 33 170 52 169 74 0 9 -15 73
-32 141 -30 113 -43 142 -59 126z"/>
</g>
</svg>
